<?xml version="1.0" encoding="utf-8"?>
<!-- Generator: Adobe Illustrator 19.0.0, SVG Export Plug-In . SVG Version: 6.00 Build 0)  -->
<svg version="1.1" id="圖層_1" xmlns="http://www.w3.org/2000/svg" xmlns:xlink="http://www.w3.org/1999/xlink" x="0px" y="0px"
	 viewBox="0 0 339.5 45.8" style="enable-background:new 0 0 339.5 45.8;" xml:space="preserve">
<style type="text/css">
	.st0{fill:#7EB928;}
	.st1{fill:#585A5D;}
</style>
<g id="XMLID_48_">
	<path id="XMLID_342_" class="st0" d="M153.6,25.4"/>
	<g id="XMLID_337_">
		<rect id="XMLID_341_" x="61.5" y="0" class="st0" width="11.1" height="8.6"/>
		<polygon id="XMLID_338_" class="st1" points="61.5,8.2 72.6,8.2 72.8,44.6 61.7,44.6 		"/>
	</g>
	<path id="XMLID_334_" class="st0" d="M145.9,8.8c-2.5-0.2-4.7-0.2-7-0.2l-0.2,0c-3.1,0-5.8,0.6-8.2,1.7c-2.6,1.1-4.3,2.5-5.5,4.4
		c-1.2,2-1.8,4.4-1.8,7.1v7.9c0,2.1,0.2,4.1,0.5,5.9c0.3,2,1.1,3.8,2.2,5.3c1.2,1.6,3,2.8,5.3,3.7c2.2,0.8,5.1,1.2,8.7,1.2
		c3.6,0,6.4-0.4,8.7-1.2c2.3-0.9,4.2-2.1,5.4-3.7c1.1-1.5,1.9-3.3,2.2-5.3c0.3-1.8,0.5-3.8,0.5-5.9l-0.4-29.5h-10.4L145.9,8.8z
		 M145.9,30.2c0,1.2,0,2.4-0.1,3.5c-0.1,0.9-0.3,1.6-0.7,2.2c-0.3,0.5-0.8,0.9-1.5,1.2c-0.5,0.2-1.6,0.5-3.8,0.5
		c-2.1,0-3.2-0.3-3.8-0.5c-0.7-0.3-1.2-0.7-1.5-1.2c-0.4-0.7-0.6-1.5-0.7-2.4c-0.1-1.2-0.1-2.4-0.1-3.8v-7.8c0-1.1,0.2-2,0.7-2.9
		c0.4-0.8,1-1.3,1.9-1.7c0.9-0.4,2.3-0.6,4.3-0.6c0.1,0,0.3,0,0.4,0c1,0,2.5,0.1,4.7,0.4V30.2z"/>
	<polygon id="XMLID_333_" class="st0" points="186.8,8.2 179.1,29.5 171.4,8.2 160,8.2 174.7,44.6 183.4,44.6 198.3,8.2 	"/>
	<path id="XMLID_331_" class="st0" d="M262.9,11c-1.6-1.1-3.5-1.8-5.6-2.4c-5.5-1.3-12.3-0.9-20,1.2l-1.5,0.4v34.2l10.3,0V15.6
		c1.1-0.2,2.3-0.2,3.3-0.2c2.7,0,4.8,0.5,6.3,1.5c1.3,0.9,2,2.2,2,3.9l0,23.8h10.3V20.7c0-2.1-0.4-4-1.3-5.6
		C265.9,13.4,264.6,12.1,262.9,11z"/>
	<path id="XMLID_330_" class="st0" d="M303.5,23.9c0,0,0.1-1.3,0.1-1.7c0-2.9-0.2-4.8-0.7-6.3c-0.5-1.7-1.4-3.2-2.7-4.4
		c-1.3-1.2-3-2.1-5.2-2.7c-2-0.6-4.5-0.8-7.5-0.8c-3.1,0-5.6,0.3-7.6,0.9c-2.1,0.7-3.8,1.6-5,2.8c-1.2,1.2-2.1,2.7-2.6,4.3
		c-0.4,1.4-0.7,2.4-0.8,4.2l-0.1,9.1c0,2,0.1,4,0.4,5.7c0.3,1.9,1,3.7,2.2,5.1c1.2,1.5,2.9,2.7,5.1,3.5c2.1,0.8,4.9,1.2,8.4,1.2
		c3.4,0,6.1-0.3,8.2-0.9c2.3-0.6,4-1.6,5.2-2.9c1.2-1.2,1.9-2.7,2.3-4.4c0.3-1.5,0.5-3.2,0.5-5h-10.3c0,0.9-0.1,1.8-0.2,2.6
		c-0.1,0.6-0.3,1.1-0.6,1.5c-0.3,0.4-0.8,0.7-1.4,0.9c-0.5,0.2-1.6,0.4-3.5,0.4c-2.1,0-3.1-0.3-3.7-0.5c-0.7-0.3-1.1-0.7-1.4-1.2
		c-0.3-0.6-0.5-1.4-0.6-2.3l0,0c0-1.1-0.1-2.3-0.1-3.6v-7.8c0-1,0.1-1.9,0.2-2.7c0.1-0.7,0.4-1.2,0.7-1.7c0.3-0.4,0.8-0.7,1.4-1
		c0.5-0.2,1.5-0.4,3.4-0.4c1.9,0,3,0.2,3.5,0.4c0.7,0.2,1.2,0.5,1.5,0.9c0.3,0.4,0.5,0.9,0.6,1.5c0.1,0.7,0.2,2.3,0.2,3.4v1.9
		L303.5,23.9z"/>
	<path id="XMLID_326_" class="st0" d="M339.5,23.7c0-2.2-0.2-4.2-0.6-6c-0.4-2-1.2-3.7-2.4-5.1c-1.2-1.5-3-2.6-5.2-3.4
		c-2.1-0.8-4.7-1.2-8-1.2c-3.5,0-6.3,0.4-8.4,1.2c-2.2,0.8-4,2-5.1,3.5c-1.1,1.5-1.9,3.2-2.2,5.1c-0.3,1.7-0.4,3.7-0.4,5.7v5.8
		c0,2.1,0.1,4,0.4,5.7c0.3,1.9,1.1,3.6,2.2,5.1c1.2,1.5,2.9,2.7,5.1,3.5c2.1,0.8,4.9,1.2,8.4,1.2c2.9,0,5.4-0.3,7.4-0.8
		c2.1-0.6,3.9-1.4,5.1-2.5c1.3-1.1,2.2-2.5,2.8-4c0.5-1.4,0.7-3,0.7-4.7l-10.3,0.1c0,1.4-0.4,2.5-1.1,3.2c-0.4,0.4-1.5,1-4.6,1
		c-2,0-3.1-0.3-3.6-0.5c-0.7-0.3-1.1-0.7-1.4-1.2c-0.4-0.7-0.6-1.4-0.7-2.4c-0.1-1-0.1-2.2-0.1-3.4h21.9V23.7z M317.6,21.9
		c0-0.8,0.1-1.5,0.1-2.2c0.1-0.9,0.3-1.6,0.7-2.2c0.3-0.5,0.8-0.9,1.4-1.2c0.5-0.2,1.5-0.5,3.6-0.5c1.9,0,2.9,0.2,3.4,0.4
		c0.6,0.2,1.1,0.6,1.4,1c0.4,0.6,0.7,1.4,0.8,2.4c0.1,0.7,0.2,1.4,0.2,2.3H317.6z"/>
	<path id="XMLID_322_" class="st0" d="M231.8,20.6c0-1.5-0.2-3-0.6-4.4c-0.4-1.6-1.3-3-2.5-4.3c-1.2-1.2-3-2.3-5.2-3
		c-2.2-0.7-4.9-1.1-8.3-1.1c-2.6,0-5,0.3-6.9,0.9c-2,0.6-3.7,1.4-5,2.5c-1.3,1.1-2.3,2.3-3,3.7c-0.6,1.3-0.9,2.8-0.9,4.3h9.9
		c0-1.8,0.7-3.5,5.4-3.5c2.3,0,3.6,0.3,4.2,0.6c0.9,0.3,1.5,0.7,1.9,1.2c0.4,0.5,0.6,1,0.7,1.6c0.1,0.7,0.2,1.3,0.2,1.9
		c-2.7-0.2-5-0.2-7.5-0.2l-0.2,0c-3,0-5.7,0.5-8,1.3c-2.6,0.9-4.3,2.1-5.5,3.6c-1.2,1.6-1.8,3.5-1.9,5.8l0,0.3h0
		c0,1.6,0.2,3.2,0.5,4.6c0.4,1.7,1.1,3.2,2.3,4.5c1.2,1.3,3,2.3,5.3,3c2.2,0.7,5,1,8.5,1c3.5,0,6.3-0.3,8.5-1c2.3-0.7,4.1-1.7,5.3-3
		c1.2-1.3,2-2.8,2.3-4.5c0.2-1.2,0.4-2.5,0.4-3.9l0,0v-0.6c0-0.2,0-0.3,0-0.5h0V20.6z M221.3,31.9c0,1,0,1.9-0.1,2.8
		c-0.1,0.6-0.3,1.2-0.6,1.6c-0.3,0.4-0.8,0.7-1.5,0.9c-0.6,0.2-1.7,0.5-4,0.5c-2.2,0-3.3-0.3-3.9-0.5c-0.7-0.3-1.2-0.6-1.5-1
		c-0.3-0.5-0.5-1.1-0.6-1.8c-0.1-0.8-0.1-1.8-0.1-2.8c0-0.8,0.2-1.4,0.7-2.1c0.4-0.6,1-1,1.9-1.3c0.9-0.3,2.3-0.5,4.4-0.5
		c0.9,0,3.2,0,5.3,0.3V31.9z"/>
	<polyline id="XMLID_318_" class="st1" points="23.5,8.2 16.8,29 10.3,8.2 0,8.2 12.8,44.6 20.7,44.6 28.9,21.9 37,44.6 44.8,44.6 
		58,8.2 47.6,8.2 40.9,29 33.8,8.2 	"/>
	<path id="XMLID_307_" class="st1" d="M111.5,44.5h11.8L106.4,0.2h-12L76,44.6h11.4l4.7-11.5h14.8L111.5,44.5z M96.1,23.4l4.1-9.9
		l3.4,9.9H96.1z"/>
	<path id="XMLID_303_" class="st0" d="M106.9,33.1l4.8,11.5h11.8l-17-44.4h-12"/>
</g>
</svg>
